<?xml version="1.0" encoding="UTF-8"?>
<svg xmlns="http://www.w3.org/2000/svg" xmlns:xlink="http://www.w3.org/1999/xlink" version="1.1" viewBox="0 0 1920 1080">
  <!-- Generator: Adobe Illustrator 29.3.0, SVG Export Plug-In . SVG Version: 2.1.0 Build 146)  -->
  <defs>
    <style>
      .st0 {
        mask: url(#mask);
      }

      .st1 {
        filter: url(#luminosity-noclip);
      }

      .st2 {
        fill: #cb63f9;
      }

      .st3 {
        isolation: isolate;
      }

      .st4 {
        fill: #fff;
        mix-blend-mode: screen;
      }

      .st4, .st5 {
        opacity: .8;
      }

      .st5 {
        mix-blend-mode: overlay;
      }

      .st6 {
        fill: #f2bcff;
      }
    </style>
    <filter id="luminosity-noclip" x="178.1" y="192.5" width="1563.8" height="695" color-interpolation-filters="sRGB" filterUnits="userSpaceOnUse">
      <feFlood flood-color="#fff" result="bg"/>
      <feBlend in="SourceGraphic" in2="bg"/>
    </filter>
    <mask id="mask" x="178.1" y="192.5" width="1563.8" height="695" maskUnits="userSpaceOnUse">
      <g class="st1">
        <image width="6516" height="2896" transform="translate(178.1 192.5) scale(.2)" xlink:href="rasaswadaya logo-2.png"/>
      </g>
    </mask>
  </defs>
  <g class="st3">
    <g id="Layer_1">
      <g>
        <g>
          <path class="st6" d="M515.8,358c-8.4,63-47.3,112.5-97.8,148.2s-19.1,11.2-27.1,17.1c-2.8,2-5.8,5-.5,5.6,14.2,1.6,26,1.5,40.4,4.7,146.1,33.1,167.8,228.5,38.8,299.9-131.6,72.8-292.1-38.4-249.1-188.2,24.5-85.3,86.6-102.3,149.1-151.2,42.5-33.3,81.5-79.2,81.2-136.2h65.1ZM509.9,689.8c0-71.3-57.8-129.1-129.2-129.1s-129.2,57.8-129.2,129.1,57.8,129.1,129.2,129.1,129.2-57.8,129.2-129.1Z"/>
          <path class="st6" d="M1551.5,316.3c.9,1,4.8-4.5,9-1.8s-2.8,7.6-.3,9.2c5.3-1.1,8.4,5.3,11.9,8.1,5.9,4.8,16.8,5.8,16,16.2s-3.8,7.2-8,8.5-5.1,0-6.8,1.9c18.4,19,38.1,36.6,58.2,53.8,2.5,1.6,4.1-1.4,6.4-1.3,4.9.2,20.3,16.7,24.9,20.4,4.9,2.1,12.6-1.2,17,1.3s8.5,13.2,11.7,17,5.2,5.5,7.4,7.3c5,4.2,16.9,9.1,16.9,16.1,0,3-2.8,5.9-2.3,8.3l26.4,57-.3,21.2c-6.6,2.7-12-2.1-17.1-5.5-14.4-9.4-28-21.8-42.3-31.5-3.3-1.8.5-4.9-2.2-6.5-2.7-.8-5.6,2.1-7.8,3.4,8.1,19-20.7,11.2-19.5-1.2s9.7-3.1,8.5-7.7c-1-3.7-7-7-9.8-9.3s-4.1-7.3-10-3.4c9,11-3.7,15.9-13,9s-4.7-18.7,6.9-15.1l-.4-6.9c-5.2-5.4-9.3-11.2-14.7-16.5s-13.9-10.6-15.5-14.9-.3-3.6-1-5c-1.5-2.8-12-6.4-11.7-12.6-31.3-24.1-60.5-53.9-92.7-76.6-26-18.2-53.3-25.1-83.5-11.4-1.8,2.5,8.4,13.9,3.4,22.1s-7.8,5.5-12.6,4.7c-7.3-1.2-10.7-14.6-12.2-14.7l-23,12.1c2.3,2.6,3.6,7.8,6.1,10s3,1.2,3.9,2.2c3.4,3.4,0,9.2-4.3,9.6s-3.4-1.2-8.8,1.5c-29.4,14.4-57.8,34.2-87.4,48.7-4,10.5-13,8.9-13.7-2.9l-6.4-10-81.2,45.1c-.2-2.6-1.1-4-3.8-4.3l-.5-1.8,217.1-115.8.7-1.5c-5.8-17.7-4.8-35.2,1-52.7l-92,43.9c-3.2,2.2-7.1-3.3-4.7-4.9l5.5-3.1c.4-1.3-1.1-6.8-1.6-8.5s.6-1.6-1.3-1.2l-109.9,49.4,4.8,10.4c13.1-5.3,25.5-12.7,38.6-17.8,1.9-.7,5.2-2.4,6.9-2.7,3.4-.6,5,1.7,2.6,4.4s-14,6.6-17,8.2-2.7.3-1.2,1.8,14.2,3.6,17.5,4.6c11.7,3.6,22,14.2,10.4,24.9-10.9,10.1-26.5.7-28.8-12.1l-56.4,26.1c-.9,1.3,7.8,17.7-.9,13.4-5.7-2.8-4.4-17-8.3-17-3.3.7-3.9,4.5-5.7,6.6-9.4,10.7-16.9,6.5-28.2,10.8s-14.3,9.9-4.5,14.1c25.4,10.8,68.9-18.3,93.5-25.8l.9-1.3c-1.9-1.4-12,4.3-14.7,4.9s-2.8-2-2.7-4.5c.5-14,25.2-16.8,28.3-1.3,2.1,10.5-7.1,19.6-17.5,16.6s-5.8-5.5-13.4-.9c-.7.8,11.4,11.7,3.4,15.2s-8.1-7.3-10-10.9c-1.9-.2-25.3,10.8-26,12.2-3.5,7.1,14.5,15.8,15.9,24.1,3.1,18.4-18.7,32.3-35,31.5-3.6-.2-14-2.2-10.9-7.5s14.1-10.8,15.7-14.7l-1.7-2.1c3.7.4,6.1-5.1,7.1-8.1,2.5-6.9,2.9-14.6-2.7-20.1-13.6.2-28.4,7.7-40.4-1.9-6.9,4.9-10.9,12.9-17.8,18.4-19,15.2-42,1.9-17.3-14.7,9.9-6.7,20.8-8.4,31.9-11.9-1.3-15.2,21.6-31.3,34.8-33.3,4.4-.7,8.7,0,13.1-.8,1.5-1.2.2-1.2-.5-2.2-2.5-3.4-5.4-5.7-3.7-10.7,1.4-4,9.2-1.9,10.8,1.2s-.4,2.8,0,4.3c.7,3.3,4.1,7.2,5.3,10.5l54.8-26c4.1,0,19.9,11.9,22.8,9.4l-1.7-3-21.4-16.7-27.5,12c-5.8-12-15-25.6-29.2-14.4-6.1,4.8-9.8,10.9-17.6,14.5s-10.3,1.4-16.5,2.6-10.9,5.4-11.4,5.8c-.9.8-.8,3.8-1.6,5.5-5,10.6-29.8,16.5-30.3,1.9s14.6-16.1,23.1-15.2,4.4,1.6,6.2,1.7,10.2-4.1,10.8-4.8c2.3-2.5,1.9-6.9,7.4-11.7,13.2-11.4,35.8-15.7,51.6-8.2l110-50.6c2.2-3.5,9-7.7,12.4-4.2s-1.9,11.2,4,15.1c2.3.7,29.8-14.5,34.2-16.9-4.6-6.6-12.3-22.8,0-26,11.7-3.1,13.9,9.8,17.4,17.8l34.9-14.7c36.6-56.5,105.7-32,143.9,9,4,4.3,10.5,10.5,11.3,16.1ZM1463.8,267.7c-15.7-2.5-31.1,0-44.2,9.2-1.6,1.1-10.3,8-8.8,9.9,17.5-7.4,37.2-6,55.6-2.6-.4-2.8-2.9-3.4-3.4-6.6s.7-6.5.8-9.9ZM1547.5,317.8c-15.1-18-37.1-38.1-60.5-43.1-2.2,4.6-6,8-10.1,10.9-.3,1.9.3,1,1.3,1.3,5.6,1.7,10.2,2.7,15.8,5,18.7,7.9,35.4,20.2,49.3,34.8l6.5-7.4c0-.5-1.8-1-2.3-1.6ZM1613,405c-19.7-15.8-37.7-33.8-55.4-51.8-9.1-9.3-17.2-19.9-26.9-28.7-33-29.6-84.1-45.8-126.8-29.3-5.3,11.4-8.5,23.6-7.8,36.3.3,5.3,5.4,31.8,10.1,33.3s3.2-2.5,3-4.7c-.3-3.5-6.3-13.1-5.1-15,10.6-5.2,22.2-11.4,34.1-12.3,34.1-2.6,55.8,12.9,80.8,33l75.1,63.8c2,.4,11-9,12.6-11s7.9-11,6.4-13.6ZM1346.2,295.5c-1.2.7-1.4,1.7-1.4,3-.1,2.3,4.4,12.7,6.4,12.5l2.8-1.6c0-3-3.5-15.2-7.8-13.9ZM1565.4,348.4c5.1-11.5-2.3-13.7-8.2-21.7l-6.4,7.4c4.3,3.5,7.7,9,11.5,12.6.9.9,1.5,2,3.1,1.7ZM1361.1,376.3l-66.6,35.9c1.9,2.6,5,3.7,7.4,5.6s1.8,4.7,4.7,3l60-33.8c2.4-1.8-4.1-10.9-5.5-10.7ZM1596.7,434.4c-1.6,2.3,7.1,9,9.3,9.4s6.5-1.9,8.5-3.3c3.6-2.7,17.4-18.6,16-22.8l-10.7-8.4c-5.6,10.2-11.5,21-23,25.2ZM1289.2,415.4c-2-1.2-18.8,9.6-22.1,11.1l5.7,12.2,25.2-13-8.8-10.3ZM1636.6,495.1c2.1.1,2.9-2,5-2.4,8.6-1.9,22,9.9,22.9,18.5s-2.4,4.6,3,7.2c1,0,5.1-5.8,6.5-6.3,2.9-1,3.9,1.4,9.5-2.7,11.4-8.4,18.1-22.6,24.2-34.8v-2.2c-11.8-7.7-20.5-14.5-27.8-26.9-3-5-.9-6.9-9.3-5.8-4.6,17.8-17.4,36.7-34.7,44.3l.8,11.2Z"/>
          <path class="st6" d="M666.9,636.9c1.7-17.4,14.8-38.8,33.9-41.7,31.8-4.9,53.4,17.7,47.4,47.8l-26,.8c-2.2-1.4.7-4.3.9-6.2,1.4-11.3-1.8-22.7-15.6-22.1-16,.7-23.2,23.3-20.1,36.1,64.2-13.5,90.2,55.8,67.4,104.5-13.6,28.9-53.7,42.5-80.2,21.7s-7.9-9.1-12.5-13c-6.2,11.8-17.3,21.5-30.8,24.7-59,14.3-83.9-55.6-59.6-97.9l11.4-14.5c-8.1-1.3-17.8,1.8-25.5.9s-2.3-.1-3.1-1.3v-17.8l79.4-3.5v-14.3c0-1.1-3.4-10-4.3-11.5-6.3-10.3-19.8-13.1-29.6-5.8,9.3,14.1-2.3,35.2-19.9,27-17.4-8-5.9-35.7,7.1-43.9,27.5-17.3,66.3-1.5,66.3,31.5v35.1c-25.6-1-51.4,2-62,27.8s-3.2,66,30.4,63.4c24.5-1.9,31.4-33,25.4-52.1l29.4-.9c-4.8,16.3-.9,40.1,17.2,47,46.6,17.6,60.6-71.2,18-85.2-14.8-4.9-30-.8-45.1-.8.8-11.6-1.1-24.6,0-36Z"/>
          <path class="st6" d="M1062.1,548.8c3.3-10,3-24.4-2.2-33.7-8.5-15.1-31.6-17.7-39.4-.7l-.5-9.7h-23c-3,3.4-.9,9.2-1.5,13.5,2.5-1.4,10.8-.9,10.8,2.4v74.1c-4.2-.4-8.7-.2-13.4.5-19.9,2.9-33.5,24.3-35.3,41.7-1.2,11.4.9,24.4,0,36,15.8,0,31.6-4,47.1.8,44.5,14,29.8,102.9-18.8,85.2-18.9-6.9-23-30.6-18-47l-30.7.9c6.2,19.1-.9,50.1-26.5,52.1-35,2.7-41.7-39.9-31.7-63.4,11.1-25.8,38-28.8,64.7-27.8v-35.1c0-33-40.5-48.8-69.2-31.5-13.6,8.2-25.5,35.8-7.4,43.9,18.4,8.1,30.5-12.9,20.8-27,10.1-7.3,24.3-4.5,30.9,5.8.9,1.4,4.5,10.3,4.5,11.5v14.3l-82.9,3.5v17.8c.8,1.2,1.9,1.2,3.2,1.3,8,.9,18.1-2.2,26.6-.9l-11.9,14.5c-25.3,42.3.6,112.2,62.2,97.9,14.1-3.3,25.6-12.9,32.1-24.7,4.8,3.9,7.9,9.2,13,13,27.8,20.8,69.6,7.2,83.8-21.7,23.9-48.6-3.3-118-70.3-104.5-3.2-12.8,4.2-35.5,20.9-36.1,14.4-.6,17.7,10.8,16.3,22.1-.2,1.9-3.2,4.7-.9,6.1l27.1-.8c4.3-20.5-4.8-37.4-21.4-44.7v-40.5c12.8,14.8,35.2,8.8,41.1-9.1ZM1033.5,514.6c22.2-3.2,21,46.6-2.5,39.8-14.8-4.3-13.8-37.4,2.5-39.8Z"/>
          <path class="st6" d="M1138.8,789.7c-19,0-36.1-4.8-49.5-13.9-14.7-10-24.2-24.9-27.3-43.2-5.9-34.4,6.8-57.1,37.7-67.4,5-1.6,14.6-4.4,23.5-4.4s5.9.3,8.2,1l2.3.7v-2.4c0-6.5-2.4-12.6-7-17.2-4.9-4.9-11.7-7.7-18.8-7.7s-9.7,1.4-13.8,3.9l-1.5.9.9,1.5c3.3,5.5,3.8,10.6,1.4,14.9-2.7,4.8-9,8-15.6,8-2.8,0-12.1-.8-13.9-10.7-1.6-8.4.6-16.4,6.2-23.1,8.3-9.9,23.3-16,39-16s32.7,7.9,40.3,21.6c3,5.3,7.2,18.2,7.2,23.2v21.5c-1.8,0-3.7,0-5.6,0-23.1.1-54.7.3-64.9,24.9-5.4,12.9-4.5,25.2,2.4,35.4,9.2,13.6,28.6,22.4,49.3,22.4s2.3,0,3.4,0c25.8-1.3,46.2-13.1,59-34.3,21.5-35.7,16.8-87.5,1-120.4-12.1-25.2-36.4-40.9-63.4-40.9s-48.3,13.7-60.8,36.8l-20.8,2.7c3.4-18.3,12.9-33.5,27.6-44.1,14-10.1,32.2-15.6,51.4-15.6s47.2,8.6,63.9,23.6c20.2,18.2,34.5,51.5,38.3,89.2,3.9,38.3-4.1,73.6-21.4,94.5-17.5,21.2-47.7,34.3-78.8,34.3Z"/>
          <path class="st6" d="M1528.3,785.5c-17.1,0-33.1-7.7-42.7-20.6-15.8-21.1-23.3-56.9-14.6-88.8,8.4-30.8,33.9-64.6,76.9-66.8.1,0,.3,0,.4,0v21.5c-22,.7-40.2,16.9-47.8,32.1-11.9,23.6-17.8,65.1,3,88.4,5.9,6.6,17.6,13.3,26.1,13.3s22.5-5.5,28-16.1c5.1-9.9,4.4-18.4,3.7-27.5,0-.3,0-.7,0-1,3.8-.5,11.3-1.1,17.3-1.1s3.4,0,4.3.2c-1,25.7,9.2,40,26.6,41.6s31-7.4,37-21.5c7.2-16.8,4.6-38.9-5.9-51.4-11-13.1-26.7-14.8-40.6-14.8s-8.6.2-12.8.3h-.3c-1,0-2.8.3-5.3.6-4.1.6-9.7,1.3-13.4,1.3s-.7,0-1,0c0-3.2-.2-6.6-.3-10.2-.4-9.3-.7-18.9.3-26,2-13.6,16.5-32,33-36.4,5.3-1.4,10.5-2.1,15.7-2.1,14.8,0,27.7,5.8,35.3,16,5.7,7.6,8,17,6.5,26.9-1.2.2-26.4,1.2-26.4,1.2,0-1.1-4.5-26.7-26.5-20.1s-16.1,30-16.1,30c0,0,23.1-6.3,46.5,4.4s37.6,28.3,39.8,56.5c2.2,27.5-10.8,51.4-32.9,60.9-8.1,3.4-17.7,5.3-27,5.3-16.8,0-30.9-5.9-38.6-16.2l-2.9-4.9c-2.2,4.7-13.1,24.8-45,24.8h0Z"/>
          <path class="st6" d="M1435.7,841.9c-21.1,0-40.1-9-47.3-22.4-5.4-10.1-3.8-22.1,4.7-34.5l2.5-3.7h-4.5c-25-.5-46.1-11.7-57.9-30.6-11.6-18.6-12.5-42-2.5-62.6,10.2-21,39.9-39.4,63.5-39.4h37.6v-2.4c0-7.3-2.6-13.9-7.6-18.9-6.4-6.4-16.5-10-27.6-10s-15.1,1.7-21.5,5l-1,.5-.2,1.1c-.6,2.8-.3,5.1,0,7,.3,2.1.6,3.8-.2,6.4-2.1,7.2-9.4,9.7-15,9.7-5.9,0-12.4-2.8-13.6-9-1.7-8.6.2-16.3,5.7-23,9.1-11,27.9-18.1,47.9-18.1s31.1,4.8,40,13.2c14.9,14,16,33.9,15.9,56.6h0c-2.5.1-5.1.2-8.1.2-4.8,0-9.8-.2-14.6-.4-4.9-.2-9.9-.4-14.8-.4s-8.2.2-11.7.5c-13.4,1.2-25.3,5.4-34.4,12.2-9.9,7.4-15.8,17.6-17.1,29.4-1.7,15.2,2.1,28.2,10.7,37.8,9.4,10.4,23.9,16.1,40.9,16.1s35.6-6.4,49.4-17.5c.9-.7,1.8-1.8,2.8-3,1.5-1.8,4.1-4.8,5.7-5,.9,1.9.6,8.9.6,11.2,0,1.3,0,2.4,0,3.1,0,1.4.4,2.7.8,3.9.6,2,.9,3.2.3,4.3-4.6,5.3-13.9,9.3-22.8,13.2-11.2,4.9-21.7,9.4-25.8,16.9-3.8,7-4,14-.6,19.8,4,6.6,12.3,10.9,21.3,10.9s12.9-2.3,17.6-6.5c7.3-6.5,6.7-13.9,6.1-20.4-.2-2.9-.5-5.6-.1-8.3h26.3v21.1c0,2.9-6.2,14.8-9.1,18.4-9.5,11.2-24.9,17.6-42.5,17.6Z"/>
          <path class="st6" d="M1094,423.9l-5.2,9.9-82,36.9,6.6,9.9c5.4,23.4-15.4,31.1-27.7,10.3-1.2-2-4.8-11.2-5.9-11.5l-22,10c-3.4,1.6-5.7-3.8-3.5-6.2s16.1-6.1,19.5-10.8l1.8,3.5c5.8,1.9.7-6.4-.3-8.4-3.1-6-12.2-20.7-19-21.8s-20.4,9.2-15.4,18c3.2-2.5,19-11.1,22-9.3,1.1,2,3.4,4.2.5,5.8l-22.8,10.9c5.1,9.2,9.1,19,14.3,28.1s4.5,8.8,8.1,11.4c1.1-6.3-3-10.3-6-15.2,9.5-9.5,26.6,9.5,18.6,17-1.2,1.2-12.7,7.7-13.9,7.7-4.6,0-11.3-14.2-13.6-18.4-3.7-6.6-7.8-14.3-11-21.1s-1.8-6.5-3.2-8.1-2,1.3-3.1,2.1c-2.6,2.1-4.8,1.2-7.8.5-2.1,2.5,5.6,17.8,5.9,21.5s-2.3,7.8-2.3,11.2c-.2,10.7,8.4,17.3,18.6,16.9,3.2-.1,8.6-2.4,9.5-2.3,1.5,0,3.1,3.5,6.9,3.2,5.6-.5,8.9-8.4,14.4-9.5-3.8,14.5-27.4,21.5-40.4,17.4s-19.1-16.4-15.4-29.4c.7-2.4,3-5.3,2.8-7.5s-3.7-8.1-4.6-11.1c-1.6-5.4-1.4-11.4-4.5-16.3-3.8,3.7,1.8,11.7-1.3,15.2l-45.1,20.8c4.8,6.6,6.7,14.9,10.4,22.1,21.1-13.7,39.3,7.1,24.7,26.8-11.2,15.1-37.1,22.8-55.1,18.7-3.6-.8-13.5-6.3-14.3-6.2s-5,2.6-7.2,3-5.4.2-8,.2c-2.5-2.2,10.5-7.1,12.1-7-.5-4.8-5.7-10.9-.3-14.7,2.2-.4,5.2,6.2,6.8,7.8,12.5,12.1,35.1,7.3,48.5-1,2-1.2,7.3-4.7,6.2-6.8-7.9,3.9-19,12.6-28,8s-5.9-14.9-.3-20.6,6.1-4.8,7.5-4.8c2.6,0,1.9,3.3,2.8,5,2.5,4.7,6.6,9.3,8.1,14.8l5.1-1.2c-5.4-4.8.5-18.8-7.8-19.5l.9,6.9c-.9-.1-1.6-1.1-2.1-1.8-1-1.3-11.6-22.9-12-24.5s1.3-5.6-1.1-4.9l-185.4,85.5c-1.9,1.2-10.2-.2-11.3-1.3s.6-1.5,1.2-1.8c33.4-17,69.1-32.9,103.2-48.7,45.4-20.9,91.2-40.9,136.8-61.1,3.5-2.3-1.3-8.3-.8-12.9.9-7.8,12.8-5.6,13.9,0s-.2,4.4,0,6.5c3.7-.9,6.2-3.5,10.4-2.6-1.9-14.4,6.2-33,23-31.2s21.7,18.6,29.6,25.9l16.3,3.4c6.2-4.5,14-7.7,21.1-11,23.8-10.9,47.7-21.4,71.5-32.2Z"/>
          <path class="st6" d="M494.4,558c-.5-2.7-2.1-4.2-4.3-5.7l.7-2.2c59.5-46.9,116.4-95,156.8-159.9,12.9-20.7,22.9-43.3,35.4-63.9,9.1-14.9,18.2-26.7,35.1-33.3s33-5.5,23.4-17.6c-11.5-14.4-79.9-32.5-100.2-38-39.5-10.8-81.6-21.5-121.7-29.3-12.7-2.5-45-9.4-56.3-5.5-16.7,5.8.2,22.9,4.7,31,20.7,37-10.3,102.7-29.5,136.3s-59.1,109-84.7,122.2l-7.1-2.9c29.8-19.7,69.2-92,77.6-105.8,20.4-33.6,56.3-103,39.7-142.5-4.7-11-15.8-17.3-14.4-31,2-19.6,32.5-15.3,46.3-13.5,46.1,6.2,100.7,21.2,145.9,33.6,23.5,6.5,87.5,23.1,103,39.4,8.1,8.5,8.3,18.8-3.3,23.8-9.6,4.1-21.2,5.7-30.5,11.3-18.1,10.9-36.3,54.9-47.3,74.2-42,73.6-101.2,125-166.1,177.9l-3.2,1.4Z"/>
          <path class="st6" d="M1270,785.5c-9,0-17-3.4-22.8-9.6-6.6-7.1-9.6-17.4-8.5-29.5l.2-2.3,15.6.7v2.4c-.4,4.2.8,7.8,3.3,10.3,2.4,2.5,5.8,3.9,9.5,3.9s8.5-1.8,11.7-5.1c8.2-8.2,13.9-29.8,14.6-54.8.7-25-3.7-46.9-11.1-56-3.1-3.8-7.4-5.9-11.8-5.9s-9.9,3.6-11.6,7.7-1.4,11.5-1.4,11.5l-17.8-2.5s-1.6-5,.7-14c2.2-9,6.9-14.9,11.4-18.4,6-4.6,13.2-7,20.9-7,12.8,0,25.3,6.6,32.6,17.3,9.4,13.7,14.6,37.4,14.4,64.9-.2,26.6-5.6,50.9-14.4,65-8.4,13.4-21.7,21.4-35.7,21.4Z"/>
          <path class="st6" d="M790,780.6c-8.4,0-16-3.2-21.4-9-6.2-6.7-9-16.3-8-27.8l.2-2.2,14.6.7v2.3c-.3,3.9.8,7.3,3.1,9.7,2.2,2.3,5.5,3.6,9,3.6s8-1.7,11-4.8c7.7-7.8,13.1-28,13.8-51.6.7-23.5-3.4-44.2-10.5-52.7-2.9-3.6-7-5.6-11.1-5.6s-9.3,3.3-10.9,7.2-1.3,10.8-1.3,10.8l-16.7-2.3s-1.5-4.7.6-13.2c2.1-8.5,6.5-14,10.8-17.4,5.6-4.3,12.4-6.6,19.7-6.6,12,0,23.8,6.3,30.7,16.3,8.8,12.9,13.8,35.2,13.6,61-.2,25-5.3,47.9-13.5,61.2-7.9,12.6-20.4,20.2-33.6,20.2Z"/>
          <path class="st6" d="M252.7,577.5s-4.5,5-10.1,11.3c-8.2,9.1-18.6,20.9-20.6,23.5-71.6,95.5-21.2,214.2,85.6,251.8,106.2,37.4,176.4-16,266.9-58.2,6-2.8,19.1-9.7,24.6-11s8.6-.3,10.4,4.3l-135.7,65.7c-63.2,26.5-128.4,28.6-191-1.1-109.1-51.8-141-191.8-47-274.9l16.9-11.3Z"/>
          <path class="st6" d="M1285.8,357.1l-45.4,20.1-3.2-.6c5-1.6,5.9-6.9,10.1-9.8,3.7-2.6,12.6-4.1,14.2-5.8s2.2-7.8,6.5-11.7c8.7-7.8,26.3-5.3,31.5,4.9,9.2,18-22.3,30.9-33.7,17.1-.9-4.3,20.9-7.4,19.9-14.2Z"/>
          <rect class="st6" x="777.9" y="538.5" width="94.4" height="7.4" transform="translate(-149.5 384.2) rotate(-24.1)"/>
          <path class="st6" d="M1006.9,431.1c20.2-3.1,21.6,22.1.6,24.9-22.7,3-19.6-22-.6-24.9Z"/>
          <path class="st6" d="M1141.7,488.1c-6.2,6.4-14.4,10.6-19.7,18.1l-60.2,34-1.6-6.7.7-1.5,80.8-43.8Z"/>
          <path class="st6" d="M1042.5,418.9c5.4-.9,14.9.6,15.8,7.2,1.6,11.4-16.6,19.8-25.8,15.3-13.4-6.5.4-20.9,9.9-22.5Z"/>
          <path class="st6" d="M776.9,556c1.1.6,9.3,20.7,8.9,22.8s-1.8,2.8-3.6,2.7c-3.2-.4-4.5-11.9-7.3-14.3-6.6,3.6-21.5,12.8-28.6,12.1s-7-1.8-2.9-4.4c7.7-5,19.2-8,27.5-12.4,1.3-1.1.1-9.7,5.9-6.3Z"/>
          <path class="st6" d="M1185.1,388.4c1.8,7.2-11,15.8-16.8,15.6-11-.5-9.4-20.5-.3-24.5s5.1,9.4,7.5,11.1,6.4-3.3,9.6-2.2Z"/>
          <path class="st6" d="M914.9,498.7c3.7-.8,3.2,4,1.8,6.2s-31.1,13.7-36.1,16.1c-2.5.3-6.2-3.3-3.3-5.1l37.5-17.2Z"/>
          <path class="st6" d="M1069.5,411.1c15.2-2.1,14.9,19.7-1.9,17.1-10.7-1.6-8.4-15.7,1.9-17.1Z"/>
          <path class="st6" d="M936.6,487.5c1.9,1.8,2.2,5.4,2.7,7.9l-6.2,3c-2.6-.7-2.1-9.6-2.2-12,1.7-1,4.3-.3,5.7,1.1Z"/>
          <path class="st6" d="M477.5,640.8l2.6,8.6c-12.3,5.4-24.6,11.3-36.1,18.1s-17.9,13-27.6,17.4c-14.2-2.8,7.8-15.4,12.7-18.5,15.3-9.9,32.1-17.9,48.5-25.7Z"/>
          <path class="st6" d="M1677.2,464.8c6.6-1.3,10.8,7.7,10.7,13.3-.2,10.2-10.5,24.6-21.8,20.9s1.9-32.4,11.1-34.2Z"/>
        </g>
        <image width="6499" height="2879" transform="translate(180.1 194.5) scale(.2)" xlink:href="rasaswadaya logo-1.png"/>
        <g class="st5">
          <path class="st2" d="M515.8,358c-8.4,63-47.3,112.5-97.8,148.2s-19.1,11.2-27.1,17.1c-2.8,2-5.8,5-.5,5.6,14.2,1.6,26,1.5,40.4,4.7,146.1,33.1,167.8,228.5,38.8,299.9-131.6,72.8-292.1-38.4-249.1-188.2,24.5-85.3,86.6-102.3,149.1-151.2,42.5-33.3,81.5-79.2,81.2-136.2h65.1ZM509.9,689.8c0-71.3-57.8-129.1-129.2-129.1s-129.2,57.8-129.2,129.1,57.8,129.1,129.2,129.1,129.2-57.8,129.2-129.1ZM1551.5,316.3c.9,1,4.8-4.5,9-1.8s-2.8,7.6-.3,9.2c5.3-1.1,8.4,5.3,11.9,8.1,5.9,4.8,16.8,5.8,16,16.2s-3.8,7.2-8,8.5-5.1,0-6.8,1.9c18.4,19,38.1,36.6,58.2,53.8,2.5,1.6,4.1-1.4,6.4-1.3,4.9.2,20.3,16.7,24.9,20.4,4.9,2.1,12.6-1.2,17,1.3s8.5,13.2,11.7,17,5.2,5.5,7.4,7.3c5,4.2,16.9,9.1,16.9,16.1,0,3-2.8,5.9-2.3,8.3l26.4,57-.3,21.2c-6.6,2.7-12-2.1-17.1-5.5-14.4-9.4-28-21.8-42.3-31.5-3.3-1.8.5-4.9-2.2-6.5-2.7-.8-5.6,2.1-7.8,3.4,8.1,19-20.7,11.2-19.5-1.2s9.7-3.1,8.5-7.7c-1-3.7-7-7-9.8-9.3s-4.1-7.3-10-3.4c9,11-3.7,15.9-13,9s-4.7-18.7,6.9-15.1l-.4-6.9c-5.2-5.4-9.3-11.2-14.7-16.5s-13.9-10.6-15.5-14.9-.3-3.6-1-5c-1.5-2.8-12-6.4-11.7-12.6-31.3-24.1-60.5-53.9-92.7-76.6-26-18.2-53.3-25.1-83.5-11.4-1.8,2.5,8.4,13.9,3.4,22.1s-7.8,5.5-12.6,4.7c-7.3-1.2-10.7-14.6-12.2-14.7l-23,12.1c2.3,2.6,3.6,7.8,6.1,10s3,1.2,3.9,2.2c3.4,3.4,0,9.2-4.3,9.6s-3.4-1.2-8.8,1.5c-29.4,14.4-57.8,34.2-87.4,48.7-4,10.5-13,8.9-13.7-2.9l-6.4-10-81.2,45.1c-.2-2.6-1.1-4-3.8-4.3l-.5-1.8,217.1-115.8.7-1.5c-5.8-17.7-4.8-35.2,1-52.7l-92,43.9c-3.2,2.2-7.1-3.3-4.7-4.9l5.5-3.1c.4-1.3-1.1-6.8-1.6-8.5s.6-1.6-1.3-1.2l-109.9,49.4,4.8,10.4c13.1-5.3,25.5-12.7,38.6-17.8,1.9-.7,5.2-2.4,6.9-2.7,3.4-.6,5,1.7,2.6,4.4s-14,6.6-17,8.2-2.7.3-1.2,1.8,14.2,3.6,17.5,4.6c11.7,3.6,22,14.2,10.4,24.9-10.9,10.1-26.5.7-28.8-12.1l-56.4,26.1c-.9,1.3,7.8,17.7-.9,13.4-5.7-2.8-4.4-17-8.3-17-3.3.7-3.9,4.5-5.7,6.6-9.4,10.7-16.9,6.5-28.2,10.8s-14.3,9.9-4.5,14.1c25.4,10.8,68.9-18.3,93.5-25.8l.9-1.3c-1.9-1.4-12,4.3-14.7,4.9s-2.8-2-2.7-4.5c.5-14,25.2-16.8,28.3-1.3,2.1,10.5-7.1,19.6-17.5,16.6s-5.8-5.5-13.4-.9c-.7.8,11.4,11.7,3.4,15.2s-8.1-7.3-10-10.9c-1.9-.2-25.3,10.8-26,12.2-3.5,7.1,14.5,15.8,15.9,24.1,3.1,18.4-18.7,32.3-35,31.5-3.6-.2-14-2.2-10.9-7.5s14.1-10.8,15.7-14.7l-1.7-2.1c3.7.4,6.1-5.1,7.1-8.1,2.5-6.9,2.9-14.6-2.7-20.1-13.6.2-28.4,7.7-40.4-1.9-6.9,4.9-10.9,12.9-17.8,18.4-19,15.2-42,1.9-17.3-14.7,9.9-6.7,20.8-8.4,31.9-11.9-1.3-15.2,21.6-31.3,34.8-33.3,4.4-.7,8.7,0,13.1-.8,1.5-1.2.2-1.2-.5-2.2-2.5-3.4-5.4-5.7-3.7-10.7,1.4-4,9.2-1.9,10.8,1.2s-.4,2.8,0,4.3c.7,3.3,4.1,7.2,5.3,10.5l54.8-26c4.1,0,19.9,11.9,22.8,9.4l-1.7-3-21.4-16.7-27.5,12c-5.8-12-15-25.6-29.2-14.4-6.1,4.8-9.8,10.9-17.6,14.5s-10.3,1.4-16.5,2.6-10.9,5.4-11.4,5.8c-.9.8-.8,3.8-1.6,5.5-5,10.6-29.8,16.5-30.3,1.9s14.6-16.1,23.1-15.2,4.4,1.6,6.2,1.7,10.2-4.1,10.8-4.8c2.3-2.5,1.9-6.9,7.4-11.7,13.2-11.4,35.8-15.7,51.6-8.2l110-50.6c2.2-3.5,9-7.7,12.4-4.2s-1.9,11.2,4,15.1c2.3.7,29.8-14.5,34.2-16.9-4.6-6.6-12.3-22.8,0-26,11.7-3.1,13.9,9.8,17.4,17.8l34.9-14.7c36.6-56.5,105.7-32,143.9,9,4,4.3,10.5,10.5,11.3,16.1ZM1463.8,267.7c-15.7-2.5-31.1,0-44.2,9.2-1.6,1.1-10.3,8-8.8,9.9,17.5-7.4,37.2-6,55.6-2.6-.4-2.8-2.9-3.4-3.4-6.6s.7-6.5.8-9.9ZM1547.5,317.8c-15.1-18-37.1-38.1-60.5-43.1-2.2,4.6-6,8-10.1,10.9-.3,1.9.3,1,1.3,1.3,5.6,1.7,10.2,2.7,15.8,5,18.7,7.9,35.4,20.2,49.3,34.8l6.5-7.4c0-.5-1.8-1-2.3-1.6ZM1613,405c-19.7-15.8-37.7-33.8-55.4-51.8-9.1-9.3-17.2-19.9-26.9-28.7-33-29.6-84.1-45.8-126.8-29.3-5.3,11.4-8.5,23.6-7.8,36.3.3,5.3,5.4,31.8,10.1,33.3s3.2-2.5,3-4.7c-.3-3.5-6.3-13.1-5.1-15,10.6-5.2,22.2-11.4,34.1-12.3,34.1-2.6,55.8,12.9,80.8,33l75.1,63.8c2,.4,11-9,12.6-11s7.9-11,6.4-13.6ZM1346.2,295.5c-1.2.7-1.4,1.7-1.4,3-.1,2.3,4.4,12.7,6.4,12.5l2.8-1.6c0-3-3.5-15.2-7.8-13.9ZM1565.4,348.4c5.1-11.5-2.3-13.7-8.2-21.7l-6.4,7.4c4.3,3.5,7.7,9,11.5,12.6.9.9,1.5,2,3.1,1.7ZM1361.1,376.3l-66.6,35.9c1.9,2.6,5,3.7,7.4,5.6s1.8,4.7,4.7,3l60-33.8c2.4-1.8-4.1-10.9-5.5-10.7ZM1596.7,434.4c-1.6,2.3,7.1,9,9.3,9.4s6.5-1.9,8.5-3.3c3.6-2.7,17.4-18.6,16-22.8l-10.7-8.4c-5.6,10.2-11.5,21-23,25.2ZM1289.2,415.4c-2-1.2-18.8,9.6-22.1,11.1l5.7,12.2,25.2-13-8.8-10.3ZM1636.6,495.1c2.1.1,2.9-2,5-2.4,8.6-1.9,22,9.9,22.9,18.5s-2.4,4.6,3,7.2c1,0,5.1-5.8,6.5-6.3,2.9-1,3.9,1.4,9.5-2.7,11.4-8.4,18.1-22.6,24.2-34.8v-2.2c-11.8-7.7-20.5-14.5-27.8-26.9-3-5-.9-6.9-9.3-5.8-4.6,17.8-17.4,36.7-34.7,44.3l.8,11.2ZM666.9,672.9c15.1,0,30.3-4,45.1.8,42.6,14,28.5,102.8-18,85.2-18.1-6.9-22-30.7-17.2-47l-29.4.9c6,19.1-.9,50.1-25.4,52.1-33.5,2.7-40-39.9-30.4-63.4s36.4-28.8,62-27.8v-35.1c0-33-38.8-48.8-66.3-31.5-13,8.2-24.5,35.8-7.1,43.9,17.6,8.1,29.2-12.9,19.9-27,9.7-7.3,23.3-4.5,29.6,5.8s4.3,10.3,4.3,11.5v14.3l-79.4,3.5v17.8c.8,1.2,1.8,1.2,3.1,1.3,7.7.9,17.4-2.2,25.5-.9l-11.4,14.5c-24.2,42.3.6,112.2,59.6,97.9,13.5-3.3,24.6-12.9,30.8-24.7,4.6,3.9,7.6,9.2,12.5,13,26.6,20.8,66.6,7.2,80.2-21.7,22.9-48.6-3.2-118-67.4-104.5-3.1-12.8,4.1-35.5,20.1-36.1,13.8-.6,17,10.8,15.6,22.1-.2,1.9-3.1,4.7-.9,6.2l26-.8c6-30.2-15.6-52.7-47.4-47.8-19,2.9-32.1,24.3-33.9,41.7-1.1,11.4.8,24.4,0,36ZM1062.1,548.8c3.3-10,3-24.4-2.2-33.7-8.5-15.1-31.6-17.7-39.4-.7l-.5-9.7h-23c-3,3.4-.9,9.2-1.5,13.5,2.5-1.4,10.8-.9,10.8,2.4v74.1c-4.2-.4-8.7-.2-13.4.5-19.9,2.9-33.5,24.3-35.3,41.7-1.2,11.4.9,24.4,0,36,15.8,0,31.6-4,47.1.8,44.5,14,29.8,102.9-18.8,85.2-18.9-6.9-23-30.6-18-47l-30.7.9c6.2,19.1-.9,50.1-26.5,52.1-35,2.7-41.7-39.9-31.7-63.4,11.1-25.8,38-28.8,64.7-27.8v-35.1c0-33-40.5-48.8-69.2-31.5-13.6,8.2-25.5,35.8-7.4,43.9,18.4,8.1,30.5-12.9,20.8-27,10.1-7.3,24.3-4.5,30.9,5.8.9,1.4,4.5,10.3,4.5,11.5v14.3l-82.9,3.5v17.8c.8,1.2,1.9,1.2,3.2,1.3,8,.9,18.1-2.2,26.6-.9l-11.9,14.5c-25.3,42.3.6,112.2,62.2,97.9,14.1-3.3,25.6-12.9,32.1-24.7,4.8,3.9,7.9,9.2,13,13,27.8,20.8,69.6,7.2,83.8-21.7,23.9-48.6-3.3-118-70.3-104.5-3.2-12.8,4.2-35.5,20.9-36.1,14.4-.6,17.7,10.8,16.3,22.1-.2,1.9-3.2,4.7-.9,6.1l27.1-.8c4.3-20.5-4.8-37.4-21.4-44.7v-40.5c12.8,14.8,35.2,8.8,41.1-9.1ZM1033.5,514.6c22.2-3.2,21,46.6-2.5,39.8-14.8-4.3-13.8-37.4,2.5-39.8ZM1217.5,755.4c17.3-20.9,25.3-56.2,21.4-94.5-3.8-37.7-18.1-71.1-38.3-89.2-16.7-15-39.9-23.6-63.9-23.6s-37.4,5.5-51.4,15.6c-14.7,10.6-24.2,25.8-27.6,44.1l20.8-2.7c12.6-23.1,35.2-36.8,60.8-36.8s51.2,15.7,63.4,40.9c15.8,32.8,20.5,84.7-1,120.4-12.8,21.1-33.2,33-59,34.3-1.1,0-2.3,0-3.4,0-20.7,0-40.1-8.8-49.3-22.4-6.9-10.2-7.8-22.5-2.4-35.4,10.2-24.6,41.8-24.8,64.9-24.9,1.9,0,3.8,0,5.6,0v-21.5c0-5-4.2-17.9-7.2-23.2-7.6-13.7-22.3-21.6-40.3-21.6s-30.7,6.1-39,16c-5.6,6.7-7.8,14.7-6.2,23.1,1.9,9.9,11.1,10.7,13.9,10.7,6.6,0,12.9-3.2,15.6-8,2.4-4.3,1.9-9.4-1.4-14.9l-.9-1.5,1.5-.9c4.1-2.6,8.9-3.9,13.8-3.9,7.1,0,13.9,2.8,18.8,7.7,4.6,4.6,7.1,10.7,7,17.2v2.4s-2.3-.7-2.3-.7c-2.3-.7-5.1-1-8.2-1-8.9,0-18.5,2.8-23.5,4.4-30.9,10.2-43.6,32.9-37.7,67.4,3.1,18.2,12.6,33.2,27.3,43.2,13.4,9.1,30.5,13.9,49.5,13.9,31.1,0,61.2-13.1,78.8-34.3ZM1528.3,785.5c31.9,0,42.8-20,45-24.8l2.9,4.9c7.7,10.3,21.7,16.2,38.6,16.2s18.9-1.9,27-5.3c22.1-9.5,35.1-33.4,32.9-60.9-2.2-28.2-16.4-45.8-39.8-56.5s-46.5-4.4-46.5-4.4c0,0-5.8-23.4,16.1-30s26.5,19.1,26.5,20.1c0,0,25.3-1,26.4-1.2,1.5-9.9-.8-19.3-6.5-26.9-7.7-10.2-20.5-16-35.3-16s-10.4.7-15.7,2.1c-16.5,4.3-31,22.8-33,36.4-1,7.1-.7,16.7-.3,26,.1,3.6.3,7,.3,10.2.3,0,.6,0,1,0,3.7,0,9.3-.8,13.4-1.3,2.5-.3,4.2-.6,5.3-.6h.3c4.2-.2,8.6-.4,12.8-.4,13.9,0,29.6,1.8,40.6,14.8,10.5,12.4,13.1,34.5,5.9,51.4-6,14.1-19.7,23.2-37,21.5s-27.5-15.9-26.6-41.6c-.9,0-2.2-.2-4.3-.2-6.1,0-13.6.6-17.3,1.1,0,.3,0,.7,0,1,.7,9,1.5,17.6-3.7,27.5-5.5,10.6-16.3,16.1-28,16.1s-20.2-6.7-26.1-13.3c-20.8-23.3-14.9-64.8-3-88.4,7.6-15.2,25.7-31.4,47.8-32.1v-21.5c-.1,0-.2,0-.4,0-43,2.1-68.4,35.9-76.9,66.8-8.7,31.9-1.2,67.7,14.6,88.8,9.6,12.9,25.6,20.6,42.7,20.6h0ZM1478.1,824.3c3-3.5,9.1-15.5,9.1-18.4v-21.1h-26.3c-.3,2.7-.1,5.4.1,8.3.5,6.5,1.2,13.9-6.1,20.4-4.7,4.2-11,6.5-17.6,6.5s-17.4-4.3-21.3-10.9c-3.5-5.8-3.3-12.9.6-19.8,4.1-7.5,14.7-12.1,25.8-16.9,8.9-3.9,18.2-7.9,22.8-13.2.6-1.1.3-2.3-.3-4.3-.4-1.2-.7-2.5-.8-3.9,0-.7,0-1.8,0-3.1,0-2.4.4-9.4-.6-11.2-1.6.1-4.1,3.2-5.7,5-1.1,1.2-2,2.3-2.8,3-13.8,11.1-31.8,17.5-49.4,17.5s-31.5-5.7-40.9-16.1c-8.7-9.6-12.4-22.6-10.7-37.8,1.3-11.8,7.2-22,17.1-29.4,9-6.8,20.9-11,34.4-12.2,3.5-.3,7.3-.5,11.7-.5s9.9.2,14.8.4c4.8.2,9.8.4,14.6.4s5.6,0,8.1-.2h0c0-22.7-1.1-42.6-15.9-56.6-8.9-8.4-23.5-13.2-40-13.2s-38.8,7.1-47.9,18.1c-5.5,6.7-7.4,14.4-5.7,23,1.3,6.2,7.8,9,13.6,9,5.6,0,12.9-2.5,15-9.7.8-2.6.5-4.3.2-6.4-.3-2-.6-4.2,0-7l.2-1.1,1-.5c6.4-3.3,13.9-5,21.5-5,11.1,0,21.2,3.7,27.6,10,5,5,7.6,11.5,7.6,18.9v2.4h-37.6c-23.7,0-53.4,18.4-63.5,39.4-10,20.6-9,44,2.5,62.6,11.8,18.9,32.9,30,57.9,30.5h4.5c0,0-2.5,3.7-2.5,3.7-8.5,12.5-10.2,24.4-4.7,34.5,7.2,13.4,26.2,22.5,47.3,22.4,17.5,0,33-6.4,42.5-17.6ZM1022.5,456.1c-7.1,3.2-14.8,6.5-21.1,11l-16.3-3.4c-7.9-7.3-18.3-24.7-29.6-25.9-16.8-1.8-24.9,16.8-23,31.2-4.2-.9-6.7,1.7-10.4,2.6-.2-2.1.3-4.5,0-6.5-1-5.5-12.9-7.7-13.9,0-.6,4.6,4.3,10.6.8,12.9-45.7,20.2-91.5,40.2-136.8,61.1-34.2,15.7-69.8,31.6-103.2,48.7-.7.3-2.7.3-1.2,1.8s9.4,2.5,11.3,1.3l185.4-85.5c2.4-.7.6,3.2,1.1,4.9s11,23.1,12,24.5,1.2,1.7,2.1,1.8l-.9-6.9c8.3.7,2.4,14.7,7.8,19.5l-5.1,1.2c-1.5-5.5-5.6-10.2-8.1-14.8s-.2-4.9-2.8-5-6.4,3.7-7.5,4.8c-5.6,5.7-8.2,16.2.3,20.6s20.1-4.1,28-8c1.1,2.1-4.3,5.6-6.2,6.8-13.3,8.3-36,13.1-48.5,1s-4.6-8.1-6.8-7.8c-5.4,3.8-.2,9.8.3,14.7-1.6-.1-14.6,4.8-12.1,7,2.7,0,5.4.2,8-.2s6.4-2.9,7.2-3,10.7,5.4,14.3,6.2c18,4.1,43.9-3.7,55.1-18.7,14.7-19.7-3.6-40.6-24.7-26.8-3.7-7.3-5.6-15.6-10.4-22.1l45.1-20.8c3.1-3.5-2.5-11.5,1.3-15.2,3.1,4.9,2.9,10.9,4.5,16.3s4.5,9.3,4.6,11.1-2.1,5.1-2.8,7.5c-3.7,13,2.3,25.2,15.4,29.4s36.6-2.9,40.4-17.4c-5.5,1.1-8.8,9-14.4,9.5s-5.3-3.1-6.9-3.2-6.3,2.2-9.5,2.3c-10.2.4-18.8-6.1-18.6-16.9s2.6-8.1,2.3-11.2-8-19-5.9-21.5c3,.8,5.1,1.6,7.8-.5s1.6-4,3.1-2.1,2.1,5.8,3.2,8.1c3.2,6.8,7.3,14.5,11,21.1s9,18.4,13.6,18.4,12.7-6.6,13.9-7.7c8-7.4-9.2-26.5-18.6-17,3,4.9,7.2,8.9,6,15.2-3.6-2.5-5.9-7.5-8.1-11.4-5.2-9.1-9.2-19-14.3-28.1l22.8-10.9c2.9-1.6.6-3.7-.5-5.8-3-1.7-18.8,6.9-22,9.3-5-8.8,6.5-19.5,15.4-18s16,15.8,19,21.8c1.1,2.1,6.2,10.3.3,8.4l-1.8-3.5c-3.4,4.7-16.6,7.6-19.5,10.8s.1,7.7,3.5,6.2l22-10c1.1.2,4.7,9.5,5.9,11.5,12.2,20.8,33,13.1,27.7-10.3l-6.6-9.9,82-36.9,5.2-9.9c-23.8,10.9-47.7,21.4-71.5,32.2ZM497.6,556.6c64.9-53,124.1-104.3,166.1-177.9s29.2-63.2,47.3-74.2c9.3-5.6,20.9-7.2,30.5-11.3,11.6-5,11.4-15.3,3.3-23.8-15.4-16.3-79.4-32.9-103-39.4-45.2-12.4-99.8-27.4-145.9-33.6-13.8-1.9-44.3-6.1-46.3,13.5-1.4,13.8,9.7,20,14.4,31,16.6,39.5-19.3,108.9-39.7,142.5-8.4,13.8-47.8,86.1-77.6,105.8l7.1,2.9c25.6-13.3,78.3-111.1,84.7-122.2,19.2-33.6,50.2-99.3,29.5-136.3-4.5-8.1-21.4-25.1-4.7-31,11.2-3.9,43.6,3,56.3,5.5,40.1,7.8,82.2,18.5,121.7,29.3,20.3,5.6,88.7,23.7,100.2,38,9.6,12.1-15.8,14.6-23.4,17.6-16.9,6.7-26,18.4-35.1,33.3-12.6,20.6-22.6,43.2-35.4,63.9-40.5,64.9-97.3,113-156.8,159.9l-.7,2.2c2.2,1.4,3.8,2.9,4.3,5.7l3.2-1.4ZM1305.7,764.1c8.8-14.1,14.2-38.4,14.4-65,.2-27.5-5-51.1-14.4-64.9-7.3-10.7-19.8-17.3-32.6-17.3s-14.9,2.4-20.9,7c-4.6,3.5-9.2,9.5-11.4,18.4-2.2,9-.7,14-.7,14l17.8,2.5s-.3-7.4,1.4-11.5,6.5-7.7,11.6-7.7,8.7,2.2,11.8,5.9c7.5,9.1,11.8,31.1,11.1,56-.7,25.1-6.5,46.6-14.6,54.8-3.3,3.3-7.4,5.1-11.7,5.1s-7.2-1.4-9.5-3.9c-2.5-2.6-3.6-6.2-3.4-10.3v-2.4c.1,0-15.4-.7-15.4-.7l-.2,2.3c-1.1,12.2,1.9,22.4,8.5,29.5,5.7,6.2,13.8,9.6,22.8,9.6,14,0,27.3-8,35.7-21.4ZM823.6,760.4c8.3-13.3,13.4-36.2,13.5-61.2.2-25.9-4.7-48.1-13.6-61-6.9-10.1-18.6-16.3-30.7-16.3s-14,2.3-19.7,6.6c-4.3,3.3-8.7,8.9-10.8,17.4-2.1,8.5-.6,13.2-.6,13.2l16.7,2.3s-.3-7,1.3-10.8,6.1-7.2,10.9-7.2,8.2,2,11.1,5.6c7,8.5,11.2,29.2,10.5,52.7-.7,23.6-6.1,43.8-13.8,51.6-3.1,3.1-7,4.8-11,4.8s-6.7-1.3-9-3.6c-2.3-2.4-3.4-5.8-3.2-9.7v-2.3c.1,0-14.5-.7-14.5-.7l-.2,2.2c-1,11.5,1.8,21.1,8,27.8,5.4,5.8,13,9,21.4,9,13.2,0,25.7-7.5,33.6-20.2ZM235.8,588.8c-94,83.1-62.1,223.1,47,274.9,62.6,29.8,127.8,27.6,191,1.1l135.7-65.7c-1.9-4.6-5.8-5.3-10.4-4.3s-18.6,8.2-24.6,11c-90.5,42.3-160.7,95.6-266.9,58.2-106.8-37.6-157.3-156.3-85.6-251.8,2-2.6,12.4-14.4,20.6-23.5,5.6-6.3,10.1-11.3,10.1-11.3l-16.9,11.3ZM1265.9,371.3c11.4,13.8,42.8.9,33.7-17.1-5.2-10.2-22.8-12.8-31.5-4.9-4.3,3.9-4.6,9.6-6.5,11.7s-10.5,3.2-14.2,5.8c-4.2,3-5.1,8.2-10.1,9.8l3.2.6,45.4-20.1c1,6.8-20.9,9.9-19.9,14.2ZM780.5,558.1l3,6.8,86.2-38.5-3-6.8-86.2,38.5ZM1007.5,455.9c21-2.7,19.6-28-.6-24.9-19,2.9-22.1,27.8.6,24.9ZM1061,532l-.7,1.5,1.6,6.7,60.2-34c5.2-7.4,13.4-11.6,19.7-18.1l-80.8,43.8ZM1032.6,441.5c9.2,4.5,27.4-3.9,25.8-15.3s-10.4-8.2-15.8-7.2c-9.5,1.6-23.3,16-9.9,22.5ZM771,562.3c-8.3,4.4-19.8,7.4-27.5,12.4s-.5,4.1,2.9,4.4c7.1.8,22-8.5,28.6-12.1,2.7,2.4,4,13.9,7.3,14.3,1.8.1,3.3-.8,3.6-2.7s-7.8-22.2-8.9-22.8c-5.8-3.3-4.6,5.2-5.9,6.3ZM1175.5,390.6c-2.5-1.8,2.5-15.5-7.5-11.1s-10.7,24,.3,24.5,18.6-8.4,16.8-15.6c-3.2-1-6.7,4.3-9.6,2.2ZM877.3,515.9c-2.9,1.8.7,5.4,3.3,5.1,5-2.3,34.5-13.4,36.1-16.1s1.9-7-1.8-6.2l-37.5,17.2ZM1067.6,428.2c16.8,2.6,17.1-19.2,1.9-17.1-10.3,1.4-12.6,15.5-1.9,17.1ZM930.8,486.5c0,2.4-.3,11.2,2.2,12l6.2-3c-.5-2.5-.8-6.1-2.7-7.9s-4-2.1-5.7-1.1ZM429,666.5c-4.8,3.1-26.9,15.7-12.7,18.5,9.7-4.4,18.2-11.8,27.6-17.4s23.8-12.7,36.1-18.1l-2.6-8.6c-16.5,7.8-33.2,15.8-48.5,25.7ZM1666.1,499c11.3,3.7,21.6-10.7,21.8-20.9.1-5.7-4.1-14.6-10.7-13.3-9.2,1.8-22,30.6-11.1,34.2Z"/>
          <g class="st0">
            <path class="st4" d="M515.8,358c-8.4,63-47.3,112.5-97.8,148.2s-19.1,11.2-27.1,17.1c-2.8,2-5.8,5-.5,5.6,14.2,1.6,26,1.5,40.4,4.7,146.1,33.1,167.8,228.5,38.8,299.9-131.6,72.8-292.1-38.4-249.1-188.2,24.5-85.3,86.6-102.3,149.1-151.2,42.5-33.3,81.5-79.2,81.2-136.2h65.1ZM509.9,689.8c0-71.3-57.8-129.1-129.2-129.1s-129.2,57.8-129.2,129.1,57.8,129.1,129.2,129.1,129.2-57.8,129.2-129.1ZM1551.5,316.3c.9,1,4.8-4.5,9-1.8s-2.8,7.6-.3,9.2c5.3-1.1,8.4,5.3,11.9,8.1,5.9,4.8,16.8,5.8,16,16.2s-3.8,7.2-8,8.5-5.1,0-6.8,1.9c18.4,19,38.1,36.6,58.2,53.8,2.5,1.6,4.1-1.4,6.4-1.3,4.9.2,20.3,16.7,24.9,20.4,4.9,2.1,12.6-1.2,17,1.3s8.5,13.2,11.7,17,5.2,5.5,7.4,7.3c5,4.2,16.9,9.1,16.9,16.1,0,3-2.8,5.9-2.3,8.3l26.4,57-.3,21.2c-6.6,2.7-12-2.1-17.1-5.5-14.4-9.4-28-21.8-42.3-31.5-3.3-1.8.5-4.9-2.2-6.5-2.7-.8-5.6,2.1-7.8,3.4,8.1,19-20.7,11.2-19.5-1.2s9.7-3.1,8.5-7.7c-1-3.7-7-7-9.8-9.3s-4.1-7.3-10-3.4c9,11-3.7,15.9-13,9s-4.7-18.7,6.9-15.1l-.4-6.9c-5.2-5.4-9.3-11.2-14.7-16.5s-13.9-10.6-15.5-14.9-.3-3.6-1-5c-1.5-2.8-12-6.4-11.7-12.6-31.3-24.1-60.5-53.9-92.7-76.6-26-18.2-53.3-25.1-83.5-11.4-1.8,2.5,8.4,13.9,3.4,22.1s-7.8,5.5-12.6,4.7c-7.3-1.2-10.7-14.6-12.2-14.7l-23,12.1c2.3,2.6,3.6,7.8,6.1,10s3,1.2,3.9,2.2c3.4,3.4,0,9.2-4.3,9.6s-3.4-1.2-8.8,1.5c-29.4,14.4-57.8,34.2-87.4,48.7-4,10.5-13,8.9-13.7-2.9l-6.4-10-81.2,45.1c-.2-2.6-1.1-4-3.8-4.3l-.5-1.8,217.1-115.8.7-1.5c-5.8-17.7-4.8-35.2,1-52.7l-92,43.9c-3.2,2.2-7.1-3.3-4.7-4.9l5.5-3.1c.4-1.3-1.1-6.8-1.6-8.5s.6-1.6-1.3-1.2l-109.9,49.4,4.8,10.4c13.1-5.3,25.5-12.7,38.6-17.8,1.9-.7,5.2-2.4,6.9-2.7,3.4-.6,5,1.7,2.6,4.4s-14,6.6-17,8.2-2.7.3-1.2,1.8,14.2,3.6,17.5,4.6c11.7,3.6,22,14.2,10.4,24.9-10.9,10.1-26.5.7-28.8-12.1l-56.4,26.1c-.9,1.3,7.8,17.7-.9,13.4-5.7-2.8-4.4-17-8.3-17-3.3.7-3.9,4.5-5.7,6.6-9.4,10.7-16.9,6.5-28.2,10.8s-14.3,9.9-4.5,14.1c25.4,10.8,68.9-18.3,93.5-25.8l.9-1.3c-1.9-1.4-12,4.3-14.7,4.9s-2.8-2-2.7-4.5c.5-14,25.2-16.8,28.3-1.3,2.1,10.5-7.1,19.6-17.5,16.6s-5.8-5.5-13.4-.9c-.7.8,11.4,11.7,3.4,15.2s-8.1-7.3-10-10.9c-1.9-.2-25.3,10.8-26,12.2-3.5,7.1,14.5,15.8,15.9,24.1,3.1,18.4-18.7,32.3-35,31.5-3.6-.2-14-2.2-10.9-7.5s14.1-10.8,15.7-14.7l-1.7-2.1c3.7.4,6.1-5.1,7.1-8.1,2.5-6.9,2.9-14.6-2.7-20.1-13.6.2-28.4,7.7-40.4-1.9-6.9,4.9-10.9,12.9-17.8,18.4-19,15.2-42,1.9-17.3-14.7,9.9-6.7,20.8-8.4,31.9-11.9-1.3-15.2,21.6-31.3,34.8-33.3,4.4-.7,8.7,0,13.1-.8,1.5-1.2.2-1.2-.5-2.2-2.5-3.4-5.4-5.7-3.7-10.7,1.4-4,9.2-1.9,10.8,1.2s-.4,2.8,0,4.3c.7,3.3,4.1,7.2,5.3,10.5l54.8-26c4.1,0,19.9,11.9,22.8,9.4l-1.7-3-21.4-16.7-27.5,12c-5.8-12-15-25.6-29.2-14.4-6.1,4.8-9.8,10.9-17.6,14.5s-10.3,1.4-16.5,2.6-10.9,5.4-11.4,5.8c-.9.8-.8,3.8-1.6,5.5-5,10.6-29.8,16.5-30.3,1.9s14.6-16.1,23.1-15.2,4.4,1.6,6.2,1.7,10.2-4.1,10.8-4.8c2.3-2.5,1.9-6.9,7.4-11.7,13.2-11.4,35.8-15.7,51.6-8.2l110-50.6c2.2-3.5,9-7.7,12.4-4.2s-1.9,11.2,4,15.1c2.3.7,29.8-14.5,34.2-16.9-4.6-6.6-12.3-22.8,0-26,11.7-3.1,13.9,9.8,17.4,17.8l34.9-14.7c36.6-56.5,105.7-32,143.9,9,4,4.3,10.5,10.5,11.3,16.1ZM1463.8,267.7c-15.7-2.5-31.1,0-44.2,9.2-1.6,1.1-10.3,8-8.8,9.9,17.5-7.4,37.2-6,55.6-2.6-.4-2.8-2.9-3.4-3.4-6.6s.7-6.5.8-9.9ZM1547.5,317.8c-15.1-18-37.1-38.1-60.5-43.1-2.2,4.6-6,8-10.1,10.9-.3,1.9.3,1,1.3,1.3,5.6,1.7,10.2,2.7,15.8,5,18.7,7.9,35.4,20.2,49.3,34.8l6.5-7.4c0-.5-1.8-1-2.3-1.6ZM1613,405c-19.7-15.8-37.7-33.8-55.4-51.8-9.1-9.3-17.2-19.9-26.9-28.7-33-29.6-84.1-45.8-126.8-29.3-5.3,11.4-8.5,23.6-7.8,36.3.3,5.3,5.4,31.8,10.1,33.3s3.2-2.5,3-4.7c-.3-3.5-6.3-13.1-5.1-15,10.6-5.2,22.2-11.4,34.1-12.3,34.1-2.6,55.8,12.9,80.8,33l75.1,63.8c2,.4,11-9,12.6-11s7.9-11,6.4-13.6ZM1346.2,295.5c-1.2.7-1.4,1.7-1.4,3-.1,2.3,4.4,12.7,6.4,12.5l2.8-1.6c0-3-3.5-15.2-7.8-13.9ZM1565.4,348.4c5.1-11.5-2.3-13.7-8.2-21.7l-6.4,7.4c4.3,3.5,7.7,9,11.5,12.6.9.9,1.5,2,3.1,1.7ZM1361.1,376.3l-66.6,35.9c1.9,2.6,5,3.7,7.4,5.6s1.8,4.7,4.7,3l60-33.8c2.4-1.8-4.1-10.9-5.5-10.7ZM1596.7,434.4c-1.6,2.3,7.1,9,9.3,9.4s6.5-1.9,8.5-3.3c3.6-2.7,17.4-18.6,16-22.8l-10.7-8.4c-5.6,10.2-11.5,21-23,25.2ZM1289.2,415.4c-2-1.2-18.8,9.6-22.1,11.1l5.7,12.2,25.2-13-8.8-10.3ZM1636.6,495.1c2.1.1,2.9-2,5-2.4,8.6-1.9,22,9.9,22.9,18.5s-2.4,4.6,3,7.2c1,0,5.1-5.8,6.5-6.3,2.9-1,3.9,1.4,9.5-2.7,11.4-8.4,18.1-22.6,24.2-34.8v-2.2c-11.8-7.7-20.5-14.5-27.8-26.9-3-5-.9-6.9-9.3-5.8-4.6,17.8-17.4,36.7-34.7,44.3l.8,11.2ZM666.9,672.9c15.1,0,30.3-4,45.1.8,42.6,14,28.5,102.8-18,85.2-18.1-6.9-22-30.7-17.2-47l-29.4.9c6,19.1-.9,50.1-25.4,52.1-33.5,2.7-40-39.9-30.4-63.4s36.4-28.8,62-27.8v-35.1c0-33-38.8-48.8-66.3-31.5-13,8.2-24.5,35.8-7.1,43.9,17.6,8.1,29.2-12.9,19.9-27,9.7-7.3,23.3-4.5,29.6,5.8s4.3,10.3,4.3,11.5v14.3l-79.4,3.5v17.8c.8,1.2,1.8,1.2,3.1,1.3,7.7.9,17.4-2.2,25.5-.9l-11.4,14.5c-24.2,42.3.6,112.2,59.6,97.9,13.5-3.3,24.6-12.9,30.8-24.7,4.6,3.9,7.6,9.2,12.5,13,26.6,20.8,66.6,7.2,80.2-21.7,22.9-48.6-3.2-118-67.4-104.5-3.1-12.8,4.1-35.5,20.1-36.1,13.8-.6,17,10.8,15.6,22.1-.2,1.9-3.1,4.7-.9,6.2l26-.8c6-30.2-15.6-52.7-47.4-47.8-19,2.9-32.1,24.3-33.9,41.7-1.1,11.4.8,24.4,0,36ZM1062.1,548.8c3.3-10,3-24.4-2.2-33.7-8.5-15.1-31.6-17.7-39.4-.7l-.5-9.7h-23c-3,3.4-.9,9.2-1.5,13.5,2.5-1.4,10.8-.9,10.8,2.4v74.1c-4.2-.4-8.7-.2-13.4.5-19.9,2.9-33.5,24.3-35.3,41.7-1.2,11.4.9,24.4,0,36,15.8,0,31.6-4,47.1.8,44.5,14,29.8,102.9-18.8,85.2-18.9-6.9-23-30.6-18-47l-30.7.9c6.2,19.1-.9,50.1-26.5,52.1-35,2.7-41.7-39.9-31.7-63.4,11.1-25.8,38-28.8,64.7-27.8v-35.1c0-33-40.5-48.8-69.2-31.5-13.6,8.2-25.5,35.8-7.4,43.9,18.4,8.1,30.5-12.9,20.8-27,10.1-7.3,24.3-4.5,30.9,5.8.9,1.4,4.5,10.3,4.5,11.5v14.3l-82.9,3.5v17.8c.8,1.2,1.9,1.2,3.2,1.3,8,.9,18.1-2.2,26.6-.9l-11.9,14.5c-25.3,42.3.6,112.2,62.2,97.9,14.1-3.3,25.6-12.9,32.1-24.7,4.8,3.9,7.9,9.2,13,13,27.8,20.8,69.6,7.2,83.8-21.7,23.9-48.6-3.3-118-70.3-104.5-3.2-12.8,4.2-35.5,20.9-36.1,14.4-.6,17.7,10.8,16.3,22.1-.2,1.9-3.2,4.7-.9,6.1l27.1-.8c4.3-20.5-4.8-37.4-21.4-44.7v-40.5c12.8,14.8,35.2,8.8,41.1-9.1ZM1033.5,514.6c22.2-3.2,21,46.6-2.5,39.8-14.8-4.3-13.8-37.4,2.5-39.8ZM1217.5,755.4c17.3-20.9,25.3-56.2,21.4-94.5-3.8-37.7-18.1-71.1-38.3-89.2-16.7-15-39.9-23.6-63.9-23.6s-37.4,5.5-51.4,15.6c-14.7,10.6-24.2,25.8-27.6,44.1l20.8-2.7c12.6-23.1,35.2-36.8,60.8-36.8s51.2,15.7,63.4,40.9c15.8,32.8,20.5,84.7-1,120.4-12.8,21.1-33.2,33-59,34.3-1.1,0-2.3,0-3.4,0-20.7,0-40.1-8.8-49.3-22.4-6.9-10.2-7.8-22.5-2.4-35.4,10.2-24.6,41.8-24.8,64.9-24.9,1.9,0,3.8,0,5.6,0v-21.5c0-5-4.2-17.9-7.2-23.2-7.6-13.7-22.3-21.6-40.3-21.6s-30.7,6.1-39,16c-5.6,6.7-7.8,14.7-6.2,23.1,1.9,9.9,11.1,10.7,13.9,10.7,6.6,0,12.9-3.2,15.6-8,2.4-4.3,1.9-9.4-1.4-14.9l-.9-1.5,1.5-.9c4.1-2.6,8.9-3.9,13.8-3.9,7.1,0,13.9,2.8,18.8,7.7,4.6,4.6,7.1,10.7,7,17.2v2.4s-2.3-.7-2.3-.7c-2.3-.7-5.1-1-8.2-1-8.9,0-18.5,2.8-23.5,4.4-30.9,10.2-43.6,32.9-37.7,67.4,3.1,18.2,12.6,33.2,27.3,43.2,13.4,9.1,30.5,13.9,49.5,13.9,31.1,0,61.2-13.1,78.8-34.3ZM1528.3,785.5c31.9,0,42.8-20,45-24.8l2.9,4.9c7.7,10.3,21.7,16.2,38.6,16.2s18.9-1.9,27-5.3c22.1-9.5,35.1-33.4,32.9-60.9-2.2-28.2-16.4-45.8-39.8-56.5s-46.5-4.4-46.5-4.4c0,0-5.8-23.4,16.1-30s26.5,19.1,26.5,20.1c0,0,25.3-1,26.4-1.2,1.5-9.9-.8-19.3-6.5-26.9-7.7-10.2-20.5-16-35.3-16s-10.4.7-15.7,2.1c-16.5,4.3-31,22.8-33,36.4-1,7.1-.7,16.7-.3,26,.1,3.6.3,7,.3,10.2.3,0,.6,0,1,0,3.7,0,9.3-.8,13.4-1.3,2.5-.3,4.2-.6,5.3-.6h.3c4.2-.2,8.6-.4,12.8-.4,13.9,0,29.6,1.8,40.6,14.8,10.5,12.4,13.1,34.5,5.9,51.4-6,14.1-19.7,23.2-37,21.5s-27.5-15.9-26.6-41.6c-.9,0-2.2-.2-4.3-.2-6.1,0-13.6.6-17.3,1.1,0,.3,0,.7,0,1,.7,9,1.5,17.6-3.7,27.5-5.5,10.6-16.3,16.1-28,16.1s-20.2-6.7-26.1-13.3c-20.8-23.3-14.9-64.8-3-88.4,7.6-15.2,25.7-31.4,47.8-32.1v-21.5c-.1,0-.2,0-.4,0-43,2.1-68.4,35.9-76.9,66.8-8.7,31.9-1.2,67.7,14.6,88.8,9.6,12.9,25.6,20.6,42.7,20.6h0ZM1478.1,824.3c3-3.5,9.1-15.5,9.1-18.4v-21.1h-26.3c-.3,2.7-.1,5.4.1,8.3.5,6.5,1.2,13.9-6.1,20.4-4.7,4.2-11,6.5-17.6,6.5s-17.4-4.3-21.3-10.9c-3.5-5.8-3.3-12.9.6-19.8,4.1-7.5,14.7-12.1,25.8-16.9,8.9-3.9,18.2-7.9,22.8-13.2.6-1.1.3-2.3-.3-4.3-.4-1.2-.7-2.5-.8-3.9,0-.7,0-1.8,0-3.1,0-2.4.4-9.4-.6-11.2-1.6.1-4.1,3.2-5.7,5-1.1,1.2-2,2.3-2.8,3-13.8,11.1-31.8,17.5-49.4,17.5s-31.5-5.7-40.9-16.1c-8.7-9.6-12.4-22.6-10.7-37.8,1.3-11.8,7.2-22,17.1-29.4,9-6.8,20.9-11,34.4-12.2,3.5-.3,7.3-.5,11.7-.5s9.9.2,14.8.4c4.8.2,9.8.4,14.6.4s5.6,0,8.1-.2h0c0-22.7-1.1-42.6-15.9-56.6-8.9-8.4-23.5-13.2-40-13.2s-38.8,7.1-47.9,18.1c-5.5,6.7-7.4,14.4-5.7,23,1.3,6.2,7.8,9,13.6,9,5.6,0,12.9-2.5,15-9.7.8-2.6.5-4.3.2-6.4-.3-2-.6-4.2,0-7l.2-1.1,1-.5c6.4-3.3,13.9-5,21.5-5,11.1,0,21.2,3.7,27.6,10,5,5,7.6,11.5,7.6,18.9v2.4h-37.6c-23.7,0-53.4,18.4-63.5,39.4-10,20.6-9,44,2.5,62.6,11.8,18.9,32.9,30,57.9,30.5h4.5c0,0-2.5,3.7-2.5,3.7-8.5,12.5-10.2,24.4-4.7,34.5,7.2,13.4,26.2,22.5,47.3,22.4,17.5,0,33-6.4,42.5-17.6ZM1022.5,456.1c-7.1,3.2-14.8,6.5-21.1,11l-16.3-3.4c-7.9-7.3-18.3-24.7-29.6-25.9-16.8-1.8-24.9,16.8-23,31.2-4.2-.9-6.7,1.7-10.4,2.6-.2-2.1.3-4.5,0-6.5-1-5.5-12.9-7.7-13.9,0-.6,4.6,4.3,10.6.8,12.9-45.7,20.2-91.5,40.2-136.8,61.1-34.2,15.7-69.8,31.6-103.2,48.7-.7.3-2.7.3-1.2,1.8s9.4,2.5,11.3,1.3l185.4-85.5c2.4-.7.6,3.2,1.1,4.9s11,23.1,12,24.5,1.2,1.7,2.1,1.8l-.9-6.9c8.3.7,2.4,14.7,7.8,19.5l-5.1,1.2c-1.5-5.5-5.6-10.2-8.1-14.8s-.2-4.9-2.8-5-6.4,3.7-7.5,4.8c-5.6,5.7-8.2,16.2.3,20.6s20.1-4.1,28-8c1.1,2.1-4.3,5.6-6.2,6.8-13.3,8.3-36,13.1-48.5,1s-4.6-8.1-6.8-7.8c-5.4,3.8-.2,9.8.3,14.7-1.6-.1-14.6,4.8-12.1,7,2.7,0,5.4.2,8-.2s6.4-2.9,7.2-3,10.7,5.4,14.3,6.2c18,4.1,43.9-3.7,55.1-18.7,14.7-19.7-3.6-40.6-24.7-26.8-3.7-7.3-5.6-15.6-10.4-22.1l45.1-20.8c3.1-3.5-2.5-11.5,1.3-15.2,3.1,4.9,2.9,10.9,4.5,16.3s4.5,9.3,4.6,11.1-2.1,5.1-2.8,7.5c-3.7,13,2.3,25.2,15.4,29.4s36.6-2.9,40.4-17.4c-5.5,1.1-8.8,9-14.4,9.5s-5.3-3.1-6.9-3.2-6.3,2.2-9.5,2.3c-10.2.4-18.8-6.1-18.6-16.9s2.6-8.1,2.3-11.2-8-19-5.9-21.5c3,.8,5.1,1.6,7.8-.5s1.6-4,3.1-2.1,2.1,5.8,3.2,8.1c3.2,6.8,7.3,14.5,11,21.1s9,18.4,13.6,18.4,12.7-6.6,13.9-7.7c8-7.4-9.2-26.5-18.6-17,3,4.9,7.2,8.9,6,15.2-3.6-2.5-5.9-7.5-8.1-11.4-5.2-9.1-9.2-19-14.3-28.1l22.8-10.9c2.9-1.6.6-3.7-.5-5.8-3-1.7-18.8,6.9-22,9.3-5-8.8,6.5-19.5,15.4-18s16,15.8,19,21.8c1.1,2.1,6.2,10.3.3,8.4l-1.8-3.5c-3.4,4.7-16.6,7.6-19.5,10.8s.1,7.7,3.5,6.2l22-10c1.1.2,4.7,9.5,5.9,11.5,12.2,20.8,33,13.1,27.7-10.3l-6.6-9.9,82-36.9,5.2-9.9c-23.8,10.9-47.7,21.4-71.5,32.2ZM497.6,556.6c64.9-53,124.1-104.3,166.1-177.9s29.2-63.2,47.3-74.2c9.3-5.6,20.9-7.2,30.5-11.3,11.6-5,11.4-15.3,3.3-23.8-15.4-16.3-79.4-32.9-103-39.4-45.2-12.4-99.8-27.4-145.9-33.6-13.8-1.9-44.3-6.1-46.3,13.5-1.4,13.8,9.7,20,14.4,31,16.6,39.5-19.3,108.9-39.7,142.5-8.4,13.8-47.8,86.1-77.6,105.8l7.1,2.9c25.6-13.3,78.3-111.1,84.7-122.2,19.2-33.6,50.2-99.3,29.5-136.3-4.5-8.1-21.4-25.1-4.7-31,11.2-3.9,43.6,3,56.3,5.5,40.1,7.8,82.2,18.5,121.7,29.3,20.3,5.6,88.7,23.7,100.2,38,9.6,12.1-15.8,14.6-23.4,17.6-16.9,6.7-26,18.4-35.1,33.3-12.6,20.6-22.6,43.2-35.4,63.9-40.5,64.9-97.3,113-156.8,159.9l-.7,2.2c2.2,1.4,3.8,2.9,4.3,5.7l3.2-1.4ZM1305.7,764.1c8.8-14.1,14.2-38.4,14.4-65,.2-27.5-5-51.1-14.4-64.9-7.3-10.7-19.8-17.3-32.6-17.3s-14.9,2.4-20.9,7c-4.6,3.5-9.2,9.5-11.4,18.4-2.2,9-.7,14-.7,14l17.8,2.5s-.3-7.4,1.4-11.5,6.5-7.7,11.6-7.7,8.7,2.2,11.8,5.9c7.5,9.1,11.8,31.1,11.1,56-.7,25.1-6.5,46.6-14.6,54.8-3.3,3.3-7.4,5.1-11.7,5.1s-7.2-1.4-9.5-3.9c-2.5-2.6-3.6-6.2-3.4-10.3v-2.4c.1,0-15.4-.7-15.4-.7l-.2,2.3c-1.1,12.2,1.9,22.4,8.5,29.5,5.7,6.2,13.8,9.6,22.8,9.6,14,0,27.3-8,35.7-21.4ZM823.6,760.4c8.3-13.3,13.4-36.2,13.5-61.2.2-25.9-4.7-48.1-13.6-61-6.9-10.1-18.6-16.3-30.7-16.3s-14,2.3-19.7,6.6c-4.3,3.3-8.7,8.9-10.8,17.4-2.1,8.5-.6,13.2-.6,13.2l16.7,2.3s-.3-7,1.3-10.8,6.1-7.2,10.9-7.2,8.2,2,11.1,5.6c7,8.5,11.2,29.2,10.5,52.7-.7,23.6-6.1,43.8-13.8,51.6-3.1,3.1-7,4.8-11,4.8s-6.7-1.3-9-3.6c-2.3-2.4-3.4-5.8-3.2-9.7v-2.3c.1,0-14.5-.7-14.5-.7l-.2,2.2c-1,11.5,1.8,21.1,8,27.8,5.4,5.8,13,9,21.4,9,13.2,0,25.7-7.5,33.6-20.2ZM235.8,588.8c-94,83.1-62.1,223.1,47,274.9,62.6,29.8,127.8,27.6,191,1.1l135.7-65.7c-1.9-4.6-5.8-5.3-10.4-4.3s-18.6,8.2-24.6,11c-90.5,42.3-160.7,95.6-266.9,58.2-106.8-37.6-157.3-156.3-85.6-251.8,2-2.6,12.4-14.4,20.6-23.5,5.6-6.3,10.1-11.3,10.1-11.3l-16.9,11.3ZM1265.9,371.3c11.4,13.8,42.8.9,33.7-17.1-5.2-10.2-22.8-12.8-31.5-4.9-4.3,3.9-4.6,9.6-6.5,11.7s-10.5,3.2-14.2,5.8c-4.2,3-5.1,8.2-10.1,9.8l3.2.6,45.4-20.1c1,6.8-20.9,9.9-19.9,14.2ZM780.5,558.1l3,6.8,86.2-38.5-3-6.8-86.2,38.5ZM1007.5,455.9c21-2.7,19.6-28-.6-24.9-19,2.9-22.1,27.8.6,24.9ZM1061,532l-.7,1.5,1.6,6.7,60.2-34c5.2-7.4,13.4-11.6,19.7-18.1l-80.8,43.8ZM1032.6,441.5c9.2,4.5,27.4-3.9,25.8-15.3s-10.4-8.2-15.8-7.2c-9.5,1.6-23.3,16-9.9,22.5ZM771,562.3c-8.3,4.4-19.8,7.4-27.5,12.4s-.5,4.1,2.9,4.4c7.1.8,22-8.5,28.6-12.1,2.7,2.4,4,13.9,7.3,14.3,1.8.1,3.3-.8,3.6-2.7s-7.8-22.2-8.9-22.8c-5.8-3.3-4.6,5.2-5.9,6.3ZM1175.5,390.6c-2.5-1.8,2.5-15.5-7.5-11.1s-10.7,24,.3,24.5,18.6-8.4,16.8-15.6c-3.2-1-6.7,4.3-9.6,2.2ZM877.3,515.9c-2.9,1.8.7,5.4,3.3,5.1,5-2.3,34.5-13.4,36.1-16.1s1.9-7-1.8-6.2l-37.5,17.2ZM1067.6,428.2c16.8,2.6,17.1-19.2,1.9-17.1-10.3,1.4-12.6,15.5-1.9,17.1ZM930.8,486.5c0,2.4-.3,11.2,2.2,12l6.2-3c-.5-2.5-.8-6.1-2.7-7.9s-4-2.1-5.7-1.1ZM429,666.5c-4.8,3.1-26.9,15.7-12.7,18.5,9.7-4.4,18.2-11.8,27.6-17.4s23.8-12.7,36.1-18.1l-2.6-8.6c-16.5,7.8-33.2,15.8-48.5,25.7ZM1666.1,499c11.3,3.7,21.6-10.7,21.8-20.9.1-5.7-4.1-14.6-10.7-13.3-9.2,1.8-22,30.6-11.1,34.2Z"/>
          </g>
        </g>
      </g>
    </g>
  </g>
</svg>